<svg width="305" height="45" viewBox="0 0 305 45" fill="none" xmlns="http://www.w3.org/2000/svg">
<path d="M26.3719 43.7467H0V41.5385H0.155129C1.32721 41.5385 2.15457 41.2599 2.63719 40.7029C3.11981 40.1061 3.3956 39.4098 3.46454 38.6141C3.53349 37.8183 3.56796 36.3859 3.56796 34.317V8.77321C3.56796 7.1817 3.61967 5.78912 3.72309 4.59549L0 4.83422V1.9695H12.3586V4.17772H12.2035C11.0314 4.17772 10.204 4.47613 9.7214 5.07295C9.23878 5.62998 8.96299 6.30637 8.89405 7.10212C8.8251 7.89788 8.79063 9.33024 8.79063 11.3992V36.7639C8.79063 38.7533 8.73892 40.2653 8.6355 41.2997L17.9432 41.1207C20.0805 41.0809 21.6491 40.2851 22.6488 38.7334C23.683 37.1817 24.2001 34.6552 24.2001 31.1538H26.6821L26.3719 43.7467Z" fill="black"/>
<path d="M39.5643 15.3382C42.1153 15.3382 44.1664 16.2334 45.7177 18.0239C47.3035 19.7745 48.0791 22.3607 48.0447 25.7825L47.9929 37.5995C47.9929 38.4748 47.9412 39.5491 47.8378 40.8223L51.1989 40.6432V43.7467H44.1147C43.9768 42.9111 43.8389 41.9164 43.7011 40.7626C41.3914 43.3488 38.9438 44.6419 36.3583 44.6419C34.0141 44.6419 32.1871 44.0053 30.8771 42.7321C29.6016 41.4191 28.9638 39.748 28.9638 37.7188C28.9638 35.5305 29.705 33.7003 31.1873 32.2281C32.6697 30.7162 34.5312 29.6021 36.772 28.8859C39.0472 28.13 41.3224 27.752 43.5976 27.752V25.2454C43.5976 22.8979 43.3046 21.0875 42.7186 19.8143C42.1325 18.5411 40.8915 17.9045 38.9955 17.9045C38.0992 17.9045 37.2029 18.1631 36.3066 18.6804C35.4448 19.1578 34.807 19.7944 34.3933 20.5902C34.6346 20.8687 34.7898 21.1472 34.8587 21.4257C34.9277 21.7042 34.9621 22.1021 34.9621 22.6194C34.9621 23.256 34.7553 23.8727 34.3416 24.4695C33.9624 25.0663 33.3936 25.3647 32.6352 25.3647C31.9802 25.3647 31.4459 25.0663 31.0322 24.4695C30.6185 23.8727 30.4117 23.1366 30.4117 22.2613C30.4117 20.2719 31.2563 18.6207 32.9455 17.3077C34.6346 15.9947 36.8409 15.3382 39.5643 15.3382ZM43.5976 30.4377C40.9777 30.5968 38.6163 31.1936 36.5134 32.2281C34.4106 33.2626 33.3591 34.7944 33.3591 36.8236C33.3591 38.057 33.7556 39.0119 34.5485 39.6883C35.3413 40.3647 36.3066 40.7029 37.4442 40.7029C38.6852 40.7029 39.7711 40.4642 40.7019 39.9867C41.6671 39.4695 42.6324 38.6936 43.5976 37.6592C43.5632 37.1021 43.5459 36.2666 43.5459 35.1525C43.5459 34.9536 43.5459 34.5159 43.5459 33.8395C43.5804 33.1233 43.5976 31.9894 43.5976 30.4377Z" fill="black"/>
<path d="M69.6306 15.3979C70.6303 15.3979 71.4749 15.7162 72.1643 16.3528C72.8883 16.9894 73.2502 17.9244 73.2502 19.1578C73.2502 19.7944 73.0262 20.4509 72.578 21.1273C72.1299 21.8037 71.5093 22.1419 70.7165 22.1419C69.9925 22.1419 69.372 21.8435 68.8549 21.2467C68.3723 20.6101 68.131 19.8939 68.131 19.0981C66.9934 19.1379 65.8558 19.695 64.7182 20.7692C63.615 21.8037 62.6843 23.1366 61.9258 24.7679V38.0172C61.9258 39.4894 61.8741 40.5836 61.7707 41.2997L64.7699 41.1804V44.1048H54.428V41.7772H54.4797C55.376 41.817 56.0137 41.618 56.3929 41.1804C56.8066 40.7029 57.0479 40.0862 57.1169 39.3302C57.1858 38.5345 57.2203 37.2613 57.2203 35.5106V23.1565C57.2203 21.7639 57.272 20.6897 57.3754 19.9337L54.0143 20.1127V17.1883H55.7724C56.979 17.1883 57.8408 17.069 58.3579 16.8302C58.875 16.5915 59.3748 16.2135 59.8575 15.6963H61.5639C61.7018 16.9695 61.788 18.5411 61.8224 20.4111C62.7187 19.0584 63.8736 17.8846 65.287 16.8899C66.7004 15.8952 68.1482 15.3979 69.6306 15.3979Z" fill="black"/>
<path d="M80.5518 7.69894C79.7589 7.69894 79.0522 7.32096 78.4317 6.56499C77.8457 5.80902 77.5526 4.91379 77.5526 3.87931C77.5526 2.80504 77.8629 1.88992 78.4834 1.13395C79.1039 0.377984 79.8106 0 80.6035 0C81.4309 0 82.1375 0.377984 82.7236 1.13395C83.3096 1.88992 83.6027 2.80504 83.6027 3.87931C83.6027 4.91379 83.2924 5.80902 82.6719 6.56499C82.0514 7.32096 81.3447 7.69894 80.5518 7.69894ZM85.8262 44.1048H75.536V41.7772H75.5877C76.484 41.817 77.1217 41.618 77.5009 41.1804C77.9146 40.7029 78.1559 40.0862 78.2249 39.3302C78.2938 38.5345 78.3283 37.2613 78.3283 35.5106V23.1565C78.3283 22.2414 78.38 21.1671 78.4834 19.9337L75.174 20.1724V17.1883H75.2257C77.2596 17.1883 78.673 17.069 79.4659 16.8302C80.2588 16.5517 80.8448 16.1737 81.224 15.6963H83.0339V38.0172C83.0339 39.4894 82.9821 40.5836 82.8787 41.2997L85.8262 41.1804V44.1048Z" fill="black"/>
<path d="M94.2799 21.9032C94.2799 23.256 94.7625 24.3302 95.7277 25.126C96.7275 25.882 98.2443 26.7175 100.278 27.6326C101.967 28.3886 103.346 29.1048 104.415 29.7812C105.518 30.4576 106.432 31.3727 107.156 32.5265C107.914 33.6406 108.293 35.0133 108.293 36.6446C108.293 38.4748 107.879 40.0265 107.052 41.2997C106.225 42.5332 105.156 43.4483 103.846 44.0451C102.536 44.6817 101.157 45 99.7094 45C98.3305 45 97.0377 44.8011 95.8312 44.4032C94.6246 44.0053 93.5732 43.508 92.6769 42.9111L92.8837 44.4629H90.2982L89.988 34.4363H92.0564C92.0564 35.9085 92.3494 37.2414 92.9354 38.435C93.5559 39.5889 94.3833 40.504 95.4175 41.1804C96.4861 41.817 97.6238 42.1353 98.8303 42.1353C100.14 42.1353 101.295 41.7971 102.295 41.1207C103.329 40.4443 103.846 39.4695 103.846 38.1963C103.846 36.9231 103.381 35.9284 102.45 35.2122C101.519 34.496 100.054 33.6804 98.0547 32.7653C96.3655 32.0491 94.9693 31.3727 93.8662 30.7361C92.7975 30.0597 91.884 29.1446 91.1256 27.9907C90.3672 26.8369 89.988 25.3846 89.988 23.634C89.988 22.4403 90.2465 21.2069 90.7636 19.9337C91.3152 18.6605 92.2115 17.5862 93.4525 16.7109C94.728 15.8355 96.4 15.3979 98.4683 15.3979C100.537 15.3979 102.433 16.0743 104.156 17.4271L104.053 15.6366H106.587V25.9019H104.57C104.467 23.7533 103.932 21.9231 102.967 20.4111C102.002 18.8992 100.571 18.1432 98.6752 18.1432C97.2963 18.1432 96.2104 18.5013 95.4175 19.2175C94.6591 19.9337 94.2799 20.8289 94.2799 21.9032Z" fill="black"/>
<path d="M117.054 21.9032C117.054 23.256 117.537 24.3302 118.502 25.126C119.502 25.882 121.019 26.7175 123.053 27.6326C124.742 28.3886 126.121 29.1048 127.189 29.7812C128.293 30.4576 129.206 31.3727 129.93 32.5265C130.688 33.6406 131.068 35.0133 131.068 36.6446C131.068 38.4748 130.654 40.0265 129.827 41.2997C128.999 42.5332 127.931 43.4483 126.621 44.0451C125.311 44.6817 123.932 45 122.484 45C121.105 45 119.812 44.8011 118.606 44.4032C117.399 44.0053 116.348 43.508 115.451 42.9111L115.658 44.4629H113.073L112.762 34.4363H114.831C114.831 35.9085 115.124 37.2414 115.71 38.435C116.33 39.5889 117.158 40.504 118.192 41.1804C119.261 41.817 120.398 42.1353 121.605 42.1353C122.915 42.1353 124.07 41.7971 125.069 41.1207C126.103 40.4443 126.621 39.4695 126.621 38.1963C126.621 36.9231 126.155 35.9284 125.224 35.2122C124.294 34.496 122.829 33.6804 120.829 32.7653C119.14 32.0491 117.744 31.3727 116.641 30.7361C115.572 30.0597 114.658 29.1446 113.9 27.9907C113.142 26.8369 112.762 25.3846 112.762 23.634C112.762 22.4403 113.021 21.2069 113.538 19.9337C114.09 18.6605 114.986 17.5862 116.227 16.7109C117.502 15.8355 119.174 15.3979 121.243 15.3979C123.311 15.3979 125.207 16.0743 126.931 17.4271L126.827 15.6366H129.361V25.9019H127.345C127.241 23.7533 126.707 21.9231 125.742 20.4111C124.776 18.8992 123.346 18.1432 121.45 18.1432C120.071 18.1432 118.985 18.5013 118.192 19.2175C117.434 19.9337 117.054 20.8289 117.054 21.9032Z" fill="black"/>
<path d="M145.155 15.3382C147.706 15.3382 149.757 16.2334 151.308 18.0239C152.894 19.7745 153.67 22.3607 153.635 25.7825L153.583 37.5995C153.583 38.4748 153.532 39.5491 153.428 40.8223L156.789 40.6432V43.7467H149.705C149.567 42.9111 149.429 41.9164 149.292 40.7626C146.982 43.3488 144.534 44.6419 141.949 44.6419C139.605 44.6419 137.778 44.0053 136.468 42.7321C135.192 41.4191 134.554 39.748 134.554 37.7188C134.554 35.5305 135.296 33.7003 136.778 32.2281C138.26 30.7162 140.122 29.6021 142.363 28.8859C144.638 28.13 146.913 27.752 149.188 27.752V25.2454C149.188 22.8979 148.895 21.0875 148.309 19.8143C147.723 18.5411 146.482 17.9045 144.586 17.9045C143.69 17.9045 142.793 18.1631 141.897 18.6804C141.035 19.1578 140.398 19.7944 139.984 20.5902C140.225 20.8687 140.38 21.1472 140.449 21.4257C140.518 21.7042 140.553 22.1021 140.553 22.6194C140.553 23.256 140.346 23.8727 139.932 24.4695C139.553 25.0663 138.984 25.3647 138.226 25.3647C137.571 25.3647 137.036 25.0663 136.623 24.4695C136.209 23.8727 136.002 23.1366 136.002 22.2613C136.002 20.2719 136.847 18.6207 138.536 17.3077C140.225 15.9947 142.431 15.3382 145.155 15.3382ZM149.188 30.4377C146.568 30.5968 144.207 31.1936 142.104 32.2281C140.001 33.2626 138.95 34.7944 138.95 36.8236C138.95 38.057 139.346 39.0119 140.139 39.6883C140.932 40.3647 141.897 40.7029 143.035 40.7029C144.276 40.7029 145.362 40.4642 146.292 39.9867C147.258 39.4695 148.223 38.6936 149.188 37.6592C149.154 37.1021 149.136 36.2666 149.136 35.1525C149.136 34.9536 149.136 34.5159 149.136 33.8395C149.171 33.1233 149.188 31.9894 149.188 30.4377Z" fill="black"/>
<path d="M206.844 4.17772H206.689C205.172 4.2573 204.035 4.69496 203.276 5.49072C202.518 6.24668 201.811 7.73873 201.156 9.96684C200.57 11.6777 196.916 23.1167 190.194 44.2838H188.125L176.387 12.7719C175.112 9.42971 174.353 6.74403 174.112 4.71485L171.216 4.83422V1.9695H183.937V4.2374C182.73 4.31698 181.851 4.59549 181.3 5.07295C180.783 5.5504 180.524 6.24668 180.524 7.1618C180.524 8.03714 180.765 9.15119 181.248 10.504C182.041 12.7719 182.489 14.0252 182.593 14.2639C184.006 18.4416 185.195 21.7838 186.161 24.2905C187.884 28.6671 189.194 32.1485 190.09 34.7347C190.504 33.1432 191.263 30.6565 192.366 27.2745C192.572 26.5981 192.779 25.9019 192.986 25.1857C193.227 24.4297 193.486 23.6737 193.762 22.9178L198.105 8.83289C198.691 7.00265 199.174 5.59019 199.553 4.59549L195.623 4.83422V1.9695H206.844V4.17772Z" fill="black"/>
<path d="M212.704 7.69894C211.911 7.69894 211.205 7.32096 210.584 6.56499C209.998 5.80902 209.705 4.91379 209.705 3.87931C209.705 2.80504 210.015 1.88992 210.636 1.13395C211.256 0.377984 211.963 0 212.756 0C213.583 0 214.29 0.377984 214.876 1.13395C215.462 1.88992 215.755 2.80504 215.755 3.87931C215.755 4.91379 215.445 5.80902 214.824 6.56499C214.204 7.32096 213.497 7.69894 212.704 7.69894ZM217.978 44.1048H207.688V41.7772H207.74C208.636 41.817 209.274 41.618 209.653 41.1804C210.067 40.7029 210.308 40.0862 210.377 39.3302C210.446 38.5345 210.481 37.2613 210.481 35.5106V23.1565C210.481 22.2414 210.532 21.1671 210.636 19.9337L207.326 20.1724V17.1883H207.378C209.412 17.1883 210.825 17.069 211.618 16.8302C212.411 16.5517 212.997 16.1737 213.376 15.6963H215.186V38.0172C215.186 39.4894 215.134 40.5836 215.031 41.2997L217.978 41.1804V44.1048Z" fill="black"/>
<path d="M244.324 38.3753C243.083 40.5637 241.445 42.2149 239.411 43.3289C237.377 44.443 235.412 45 233.516 45C231.276 45 229.242 44.4032 227.415 43.2095C225.622 41.9761 224.191 40.2454 223.123 38.0172C222.089 35.7493 221.571 33.1631 221.571 30.2586C221.571 27.6724 222.089 25.2454 223.123 22.9775C224.191 20.6698 225.657 18.8395 227.518 17.4867C229.414 16.0942 231.534 15.3979 233.878 15.3979C235.774 15.3979 237.481 15.8753 238.998 16.8302C240.514 17.7851 241.704 19.2175 242.566 21.1273C243.462 23.0371 243.893 25.3647 243.858 28.1101H243.807L226.949 28.4085H227.001C227.035 32.5862 227.673 35.809 228.914 38.0769C230.155 40.3448 232.069 41.4788 234.654 41.4788C236.171 41.4788 237.688 41.0411 239.204 40.1658C240.756 39.2904 241.911 38.2162 242.669 36.943H242.772L244.324 38.3753ZM233.93 18.2029C232.103 18.2029 230.621 18.7798 229.483 19.9337C228.38 21.0875 227.621 22.9178 227.208 25.4244H238.842C238.808 23.3952 238.377 21.6844 237.55 20.2918C236.757 18.8992 235.55 18.2029 233.93 18.2029Z" fill="black"/>
<path d="M253.203 7.69894C252.41 7.69894 251.704 7.32096 251.083 6.56499C250.497 5.80902 250.204 4.91379 250.204 3.87931C250.204 2.80504 250.514 1.88992 251.135 1.13395C251.755 0.377984 252.462 0 253.255 0C254.082 0 254.789 0.377984 255.375 1.13395C255.961 1.88992 256.254 2.80504 256.254 3.87931C256.254 4.91379 255.944 5.80902 255.323 6.56499C254.703 7.32096 253.996 7.69894 253.203 7.69894ZM258.478 44.1048H248.187V41.7772H248.239C249.135 41.817 249.773 41.618 250.152 41.1804C250.566 40.7029 250.807 40.0862 250.876 39.3302C250.945 38.5345 250.98 37.2613 250.98 35.5106V23.1565C250.98 22.2414 251.031 21.1671 251.135 19.9337L247.825 20.1724V17.1883H247.877C249.911 17.1883 251.324 17.069 252.117 16.8302C252.91 16.5517 253.496 16.1737 253.875 15.6963H255.685V38.0172C255.685 39.4894 255.634 40.5836 255.53 41.2997L258.478 41.1804V44.1048Z" fill="black"/>
<path d="M277.428 15.3979C278.428 15.3979 279.273 15.7162 279.962 16.3528C280.686 16.9894 281.048 17.9244 281.048 19.1578C281.048 19.7944 280.824 20.4509 280.376 21.1273C279.928 21.8037 279.307 22.1419 278.514 22.1419C277.79 22.1419 277.17 21.8435 276.653 21.2467C276.17 20.6101 275.929 19.8939 275.929 19.0981C274.791 19.1379 273.654 19.695 272.516 20.7692C271.413 21.8037 270.482 23.1366 269.724 24.7679V38.0172C269.724 39.4894 269.672 40.5836 269.568 41.2997L272.568 41.1804V44.1048H262.226V41.7772H262.277C263.174 41.817 263.811 41.618 264.191 41.1804C264.604 40.7029 264.846 40.0862 264.915 39.3302C264.984 38.5345 265.018 37.2613 265.018 35.5106V23.1565C265.018 21.7639 265.07 20.6897 265.173 19.9337L261.812 20.1127V17.1883H263.57C264.777 17.1883 265.639 17.069 266.156 16.8302C266.673 16.5915 267.173 16.2135 267.655 15.6963H269.362C269.499 16.9695 269.586 18.5411 269.62 20.4111C270.516 19.0584 271.671 17.8846 273.085 16.8899C274.498 15.8952 275.946 15.3979 277.428 15.3979Z" fill="black"/>
<path d="M293.365 15.3382C295.916 15.3382 297.967 16.2334 299.519 18.0239C301.105 19.7745 301.88 22.3607 301.846 25.7825L301.794 37.5995C301.794 38.4748 301.742 39.5491 301.639 40.8223L305 40.6432V43.7467H297.916C297.778 42.9111 297.64 41.9164 297.502 40.7626C295.192 43.3488 292.745 44.6419 290.159 44.6419C287.815 44.6419 285.988 44.0053 284.678 42.7321C283.403 41.4191 282.765 39.748 282.765 37.7188C282.765 35.5305 283.506 33.7003 284.988 32.2281C286.471 30.7162 288.332 29.6021 290.573 28.8859C292.848 28.13 295.123 27.752 297.399 27.752V25.2454C297.399 22.8979 297.106 21.0875 296.52 19.8143C295.934 18.5411 294.693 17.9045 292.797 17.9045C291.9 17.9045 291.004 18.1631 290.108 18.6804C289.246 19.1578 288.608 19.7944 288.194 20.5902C288.436 20.8687 288.591 21.1472 288.66 21.4257C288.729 21.7042 288.763 22.1021 288.763 22.6194C288.763 23.256 288.556 23.8727 288.143 24.4695C287.763 25.0663 287.195 25.3647 286.436 25.3647C285.781 25.3647 285.247 25.0663 284.833 24.4695C284.42 23.8727 284.213 23.1366 284.213 22.2613C284.213 20.2719 285.057 18.6207 286.747 17.3077C288.436 15.9947 290.642 15.3382 293.365 15.3382ZM297.399 30.4377C294.779 30.5968 292.417 31.1936 290.314 32.2281C288.212 33.2626 287.16 34.7944 287.16 36.8236C287.16 38.057 287.557 39.0119 288.35 39.6883C289.142 40.3647 290.108 40.7029 291.245 40.7029C292.486 40.7029 293.572 40.4642 294.503 39.9867C295.468 39.4695 296.433 38.6936 297.399 37.6592C297.364 37.1021 297.347 36.2666 297.347 35.1525C297.347 34.9536 297.347 34.5159 297.347 33.8395C297.381 33.1233 297.399 31.9894 297.399 30.4377Z" fill="black"/>
</svg>
